<?xml version="1.0" encoding="UTF-8" standalone="no"?>
<!DOCTYPE svg PUBLIC "-//W3C//DTD SVG 1.1//EN"
 "http://www.w3.org/Graphics/SVG/1.1/DTD/svg11.dtd">
<!-- Generated by graphviz version 2.38.0 (20140413.2041)
 -->
<!-- Title: domain_graph Pages: 1 -->
<svg width="861pt" height="1958pt"
 viewBox="0.00 0.00 861.34 1958.00" xmlns="http://www.w3.org/2000/svg" xmlns:xlink="http://www.w3.org/1999/xlink">
<g id="graph0" class="graph" transform="scale(1 1) rotate(0) translate(4 1954)">
<title>domain_graph</title>
<polygon fill="white" stroke="none" points="-4,4 -4,-1954 857.343,-1954 857.343,4 -4,4"/>
<!-- 368_0_1 -->
<g id="node1" class="node"><title>368_0_1</title>
<ellipse fill="none" stroke="black" cx="268" cy="-714" rx="62.2891" ry="18"/>
<text text-anchor="middle" x="268" y="-710.3" font-family="Times,serif" font-size="14.00">AT 368_0_1 1</text>
</g>
<!-- 368_0_9 -->
<g id="node15" class="node"><title>368_0_9</title>
<ellipse fill="none" stroke="black" cx="268" cy="-627" rx="63.0888" ry="18"/>
<text text-anchor="middle" x="268" y="-623.3" font-family="Times,serif" font-size="14.00">KR 368_0_9 1</text>
</g>
<!-- 368_0_1&#45;&gt;368_0_9 -->
<g id="edge7" class="edge"><title>368_0_1&#45;&gt;368_0_9</title>
<path fill="none" stroke="black" stroke-width="2" d="M268,-695.799C268,-684.163 268,-668.548 268,-655.237"/>
<polygon fill="black" stroke="black" stroke-width="2" points="271.5,-655.175 268,-645.175 264.5,-655.175 271.5,-655.175"/>
<text text-anchor="middle" x="278.5" y="-666.8" font-family="Times,serif" font-size="14.00">319</text>
</g>
<!-- 368_0_1_rc -->
<g id="node2" class="node"><title>368_0_1_rc</title>
<ellipse fill="none" stroke="black" cx="502" cy="-1236" rx="73.387" ry="18"/>
<text text-anchor="middle" x="502" y="-1232.3" font-family="Times,serif" font-size="14.00">AT 368_0_1_rc 1</text>
</g>
<!-- 368_0_18_rc -->
<g id="node28" class="node"><title>368_0_18_rc</title>
<ellipse fill="none" stroke="black" cx="502" cy="-1149" rx="77.1866" ry="18"/>
<text text-anchor="middle" x="502" y="-1145.3" font-family="Times,serif" font-size="14.00">KS 368_0_18_rc 1</text>
</g>
<!-- 368_0_1_rc&#45;&gt;368_0_18_rc -->
<g id="edge6" class="edge"><title>368_0_1_rc&#45;&gt;368_0_18_rc</title>
<path fill="none" stroke="black" stroke-width="2" d="M502,-1217.8C502,-1206.16 502,-1190.55 502,-1177.24"/>
<polygon fill="black" stroke="black" stroke-width="2" points="505.5,-1177.18 502,-1167.18 498.5,-1177.18 505.5,-1177.18"/>
<text text-anchor="middle" x="512.5" y="-1188.8" font-family="Times,serif" font-size="14.00">370</text>
</g>
<!-- 368_0_2 -->
<g id="node3" class="node"><title>368_0_2</title>
<ellipse fill="none" stroke="black" cx="268" cy="-366" rx="62.2891" ry="18"/>
<text text-anchor="middle" x="268" y="-362.3" font-family="Times,serif" font-size="14.00">AT 368_0_2 1</text>
</g>
<!-- 368_0_11 -->
<g id="node19" class="node"><title>368_0_11</title>
<ellipse fill="none" stroke="black" cx="268" cy="-279" rx="67.6881" ry="18"/>
<text text-anchor="middle" x="268" y="-275.3" font-family="Times,serif" font-size="14.00">KR 368_0_11 1</text>
</g>
<!-- 368_0_2&#45;&gt;368_0_11 -->
<g id="edge15" class="edge"><title>368_0_2&#45;&gt;368_0_11</title>
<path fill="none" stroke="black" stroke-width="2" d="M268,-347.799C268,-336.163 268,-320.548 268,-307.237"/>
<polygon fill="black" stroke="black" stroke-width="2" points="271.5,-307.175 268,-297.175 264.5,-307.175 271.5,-307.175"/>
<text text-anchor="middle" x="282" y="-318.8" font-family="Times,serif" font-size="14.00">2374</text>
</g>
<!-- 368_0_2_rc -->
<g id="node4" class="node"><title>368_0_2_rc</title>
<ellipse fill="none" stroke="black" cx="502" cy="-1584" rx="73.387" ry="18"/>
<text text-anchor="middle" x="502" y="-1580.3" font-family="Times,serif" font-size="14.00">AT 368_0_2_rc 1</text>
</g>
<!-- 368_0_19_rc -->
<g id="node30" class="node"><title>368_0_19_rc</title>
<ellipse fill="none" stroke="black" cx="502" cy="-1497" rx="77.1866" ry="18"/>
<text text-anchor="middle" x="502" y="-1493.3" font-family="Times,serif" font-size="14.00">KS 368_0_19_rc 1</text>
</g>
<!-- 368_0_2_rc&#45;&gt;368_0_19_rc -->
<g id="edge14" class="edge"><title>368_0_2_rc&#45;&gt;368_0_19_rc</title>
<path fill="none" stroke="black" stroke-width="2" d="M502,-1565.8C502,-1554.16 502,-1538.55 502,-1525.24"/>
<polygon fill="black" stroke="black" stroke-width="2" points="505.5,-1525.18 502,-1515.18 498.5,-1525.18 505.5,-1525.18"/>
<text text-anchor="middle" x="512.5" y="-1536.8" font-family="Times,serif" font-size="14.00">343</text>
</g>
<!-- 368_2_3 -->
<g id="node5" class="node"><title>368_2_3</title>
<ellipse fill="none" stroke="black" cx="268" cy="-975" rx="62.2891" ry="18"/>
<text text-anchor="middle" x="268" y="-971.3" font-family="Times,serif" font-size="14.00">AT 368_2_3 1</text>
</g>
<!-- 368_2_12 -->
<g id="node21" class="node"><title>368_2_12</title>
<ellipse fill="none" stroke="black" cx="268" cy="-888" rx="67.6881" ry="18"/>
<text text-anchor="middle" x="268" y="-884.3" font-family="Times,serif" font-size="14.00">KR 368_2_12 1</text>
</g>
<!-- 368_2_3&#45;&gt;368_2_12 -->
<g id="edge1" class="edge"><title>368_2_3&#45;&gt;368_2_12</title>
<path fill="none" stroke="black" stroke-width="2" d="M268,-956.799C268,-945.163 268,-929.548 268,-916.237"/>
<polygon fill="black" stroke="black" stroke-width="2" points="271.5,-916.175 268,-906.175 264.5,-916.175 271.5,-916.175"/>
<text text-anchor="middle" x="282" y="-927.8" font-family="Times,serif" font-size="14.00">1501</text>
</g>
<!-- 368_2_3_rc -->
<g id="node6" class="node"><title>368_2_3_rc</title>
<ellipse fill="none" stroke="black" cx="502" cy="-975" rx="73.387" ry="18"/>
<text text-anchor="middle" x="502" y="-971.3" font-family="Times,serif" font-size="14.00">AT 368_2_3_rc 1</text>
</g>
<!-- 369_0_22_rc -->
<g id="node36" class="node"><title>369_0_22_rc</title>
<ellipse fill="none" stroke="black" cx="462" cy="-453" rx="77.1866" ry="18"/>
<text text-anchor="middle" x="462" y="-449.3" font-family="Times,serif" font-size="14.00">KS 369_0_22_rc 1</text>
</g>
<!-- 368_2_3_rc&#45;&gt;369_0_22_rc -->
<g id="edge41" class="edge"><title>368_2_3_rc&#45;&gt;369_0_22_rc</title>
<path fill="none" stroke="black" stroke-dasharray="1,5" d="M479.616,-957.819C461.16,-942.429 438,-917.447 438,-889 438,-889 438,-889 438,-539 438,-518.937 444.27,-497.178 450.4,-480.698"/>
<polygon fill="black" stroke="black" points="453.74,-481.768 454.142,-471.181 447.225,-479.207 453.74,-481.768"/>
<text text-anchor="middle" x="448.5" y="-710.3" font-family="Times,serif" font-size="14.00">328</text>
</g>
<!-- 378_0_29_rc -->
<g id="node50" class="node"><title>378_0_29_rc</title>
<ellipse fill="none" stroke="black" cx="571" cy="-888" rx="77.1866" ry="18"/>
<text text-anchor="middle" x="571" y="-884.3" font-family="Times,serif" font-size="14.00">KS 378_0_29_rc 2</text>
</g>
<!-- 368_2_3_rc&#45;&gt;378_0_29_rc -->
<g id="edge43" class="edge"><title>368_2_3_rc&#45;&gt;378_0_29_rc</title>
<path fill="none" stroke="black" stroke-dasharray="1,5" d="M515.632,-957.207C525.744,-944.75 539.687,-927.573 551.052,-913.574"/>
<polygon fill="black" stroke="black" points="553.811,-915.728 557.396,-905.758 548.376,-911.316 553.811,-915.728"/>
<text text-anchor="middle" x="551.5" y="-927.8" font-family="Times,serif" font-size="14.00">376</text>
</g>
<!-- 368_2_4 -->
<g id="node7" class="node"><title>368_2_4</title>
<ellipse fill="none" stroke="black" cx="268" cy="-105" rx="62.2891" ry="18"/>
<text text-anchor="middle" x="268" y="-101.3" font-family="Times,serif" font-size="14.00">AT 368_2_4 1</text>
</g>
<!-- 368_1_30 -->
<g id="node51" class="node"><title>368_1_30</title>
<ellipse fill="none" stroke="black" cx="268" cy="-18" rx="65.7887" ry="18"/>
<text text-anchor="middle" x="268" y="-14.3" font-family="Times,serif" font-size="14.00">TE 368_1_30 1</text>
</g>
<!-- 368_2_4&#45;&gt;368_1_30 -->
<g id="edge21" class="edge"><title>368_2_4&#45;&gt;368_1_30</title>
<path fill="none" stroke="black" stroke-width="2" d="M268,-86.799C268,-75.1626 268,-59.5479 268,-46.2368"/>
<polygon fill="black" stroke="black" stroke-width="2" points="271.5,-46.1754 268,-36.1754 264.5,-46.1755 271.5,-46.1754"/>
<text text-anchor="middle" x="285" y="-57.8" font-family="Times,serif" font-size="14.00">11085</text>
</g>
<!-- 368_2_4_rc -->
<g id="node8" class="node"><title>368_2_4_rc</title>
<ellipse fill="none" stroke="black" cx="502" cy="-1845" rx="73.387" ry="18"/>
<text text-anchor="middle" x="502" y="-1841.3" font-family="Times,serif" font-size="14.00">AT 368_2_4_rc 1</text>
</g>
<!-- 368_2_20_rc -->
<g id="node32" class="node"><title>368_2_20_rc</title>
<ellipse fill="none" stroke="black" cx="502" cy="-1758" rx="77.1866" ry="18"/>
<text text-anchor="middle" x="502" y="-1754.3" font-family="Times,serif" font-size="14.00">KS 368_2_20_rc 1</text>
</g>
<!-- 368_2_4_rc&#45;&gt;368_2_20_rc -->
<g id="edge20" class="edge"><title>368_2_4_rc&#45;&gt;368_2_20_rc</title>
<path fill="none" stroke="black" stroke-width="2" d="M502,-1826.8C502,-1815.16 502,-1799.55 502,-1786.24"/>
<polygon fill="black" stroke="black" stroke-width="2" points="505.5,-1786.18 502,-1776.18 498.5,-1786.18 505.5,-1786.18"/>
<text text-anchor="middle" x="512.5" y="-1797.8" font-family="Times,serif" font-size="14.00">352</text>
</g>
<!-- 369_0_5 -->
<g id="node9" class="node"><title>369_0_5</title>
<ellipse fill="none" stroke="black" cx="121" cy="-1584" rx="62.2891" ry="18"/>
<text text-anchor="middle" x="121" y="-1580.3" font-family="Times,serif" font-size="14.00">AT 369_0_5 1</text>
</g>
<!-- 369_0_22 -->
<g id="node35" class="node"><title>369_0_22</title>
<ellipse fill="none" stroke="black" cx="121" cy="-1497" rx="66.0889" ry="18"/>
<text text-anchor="middle" x="121" y="-1493.3" font-family="Times,serif" font-size="14.00">KS 369_0_22 1</text>
</g>
<!-- 369_0_5&#45;&gt;369_0_22 -->
<g id="edge24" class="edge"><title>369_0_5&#45;&gt;369_0_22</title>
<path fill="none" stroke="black" stroke-width="2" d="M121,-1565.8C121,-1554.16 121,-1538.55 121,-1525.24"/>
<polygon fill="black" stroke="black" stroke-width="2" points="124.5,-1525.18 121,-1515.18 117.5,-1525.18 124.5,-1525.18"/>
<text text-anchor="middle" x="131.5" y="-1536.8" font-family="Times,serif" font-size="14.00">493</text>
</g>
<!-- 369_0_5_rc -->
<g id="node10" class="node"><title>369_0_5_rc</title>
<ellipse fill="none" stroke="black" cx="462" cy="-366" rx="73.387" ry="18"/>
<text text-anchor="middle" x="462" y="-362.3" font-family="Times,serif" font-size="14.00">AT 369_0_5_rc 1</text>
</g>
<!-- 369_0_21_rc -->
<g id="node34" class="node"><title>369_0_21_rc</title>
<ellipse fill="none" stroke="black" cx="462" cy="-279" rx="77.1866" ry="18"/>
<text text-anchor="middle" x="462" y="-275.3" font-family="Times,serif" font-size="14.00">KS 369_0_21_rc 1</text>
</g>
<!-- 369_0_5_rc&#45;&gt;369_0_21_rc -->
<g id="edge25" class="edge"><title>369_0_5_rc&#45;&gt;369_0_21_rc</title>
<path fill="none" stroke="black" stroke-width="2" d="M462,-347.799C462,-336.163 462,-320.548 462,-307.237"/>
<polygon fill="black" stroke="black" stroke-width="2" points="465.5,-307.175 462,-297.175 458.5,-307.175 465.5,-307.175"/>
<text text-anchor="middle" x="472.5" y="-318.8" font-family="Times,serif" font-size="14.00">340</text>
</g>
<!-- 369_0_6 -->
<g id="node11" class="node"><title>369_0_6</title>
<ellipse fill="none" stroke="black" cx="462" cy="-105" rx="62.2891" ry="18"/>
<text text-anchor="middle" x="462" y="-101.3" font-family="Times,serif" font-size="14.00">AT 369_0_6 1</text>
</g>
<!-- 369_0_24 -->
<g id="node39" class="node"><title>369_0_24</title>
<ellipse fill="none" stroke="black" cx="462" cy="-18" rx="66.0889" ry="18"/>
<text text-anchor="middle" x="462" y="-14.3" font-family="Times,serif" font-size="14.00">KS 369_0_24 1</text>
</g>
<!-- 369_0_6&#45;&gt;369_0_24 -->
<g id="edge31" class="edge"><title>369_0_6&#45;&gt;369_0_24</title>
<path fill="none" stroke="black" stroke-width="2" d="M462,-86.799C462,-75.1626 462,-59.5479 462,-46.2368"/>
<polygon fill="black" stroke="black" stroke-width="2" points="465.5,-46.1754 462,-36.1754 458.5,-46.1755 465.5,-46.1754"/>
<text text-anchor="middle" x="472.5" y="-57.8" font-family="Times,serif" font-size="14.00">493</text>
</g>
<!-- 369_0_6_rc -->
<g id="node12" class="node"><title>369_0_6_rc</title>
<ellipse fill="none" stroke="black" cx="121" cy="-1845" rx="73.387" ry="18"/>
<text text-anchor="middle" x="121" y="-1841.3" font-family="Times,serif" font-size="14.00">AT 369_0_6_rc 1</text>
</g>
<!-- 369_0_23_rc -->
<g id="node38" class="node"><title>369_0_23_rc</title>
<ellipse fill="none" stroke="black" cx="121" cy="-1758" rx="77.1866" ry="18"/>
<text text-anchor="middle" x="121" y="-1754.3" font-family="Times,serif" font-size="14.00">KS 369_0_23_rc 1</text>
</g>
<!-- 369_0_6_rc&#45;&gt;369_0_23_rc -->
<g id="edge30" class="edge"><title>369_0_6_rc&#45;&gt;369_0_23_rc</title>
<path fill="none" stroke="black" stroke-width="2" d="M121,-1826.8C121,-1815.16 121,-1799.55 121,-1786.24"/>
<polygon fill="black" stroke="black" stroke-width="2" points="124.5,-1786.18 121,-1776.18 117.5,-1786.18 124.5,-1786.18"/>
<text text-anchor="middle" x="131.5" y="-1797.8" font-family="Times,serif" font-size="14.00">340</text>
</g>
<!-- 376_0_7 -->
<g id="node13" class="node"><title>376_0_7</title>
<ellipse fill="none" stroke="black" cx="193" cy="-1410" rx="62.2891" ry="18"/>
<text text-anchor="middle" x="193" y="-1406.3" font-family="Times,serif" font-size="14.00">AT 376_0_7 2</text>
</g>
<!-- 371_1_26_rc -->
<g id="node44" class="node"><title>371_1_26_rc</title>
<ellipse fill="none" stroke="black" cx="106" cy="-1323" rx="77.1866" ry="18"/>
<text text-anchor="middle" x="106" y="-1319.3" font-family="Times,serif" font-size="14.00">KS 371_1_26_rc 1</text>
</g>
<!-- 376_0_7&#45;&gt;371_1_26_rc -->
<g id="edge45" class="edge"><title>376_0_7&#45;&gt;371_1_26_rc</title>
<path fill="none" stroke="black" stroke-dasharray="1,5" d="M176.226,-1392.61C163.191,-1379.88 144.929,-1362.03 130.295,-1347.74"/>
<polygon fill="black" stroke="black" points="132.619,-1345.11 123.02,-1340.63 127.727,-1350.12 132.619,-1345.11"/>
<text text-anchor="middle" x="162" y="-1362.8" font-family="Times,serif" font-size="14.00">31</text>
</g>
<!-- 373_1_28_rc -->
<g id="node48" class="node"><title>373_1_28_rc</title>
<ellipse fill="none" stroke="black" cx="279" cy="-1323" rx="77.1866" ry="18"/>
<text text-anchor="middle" x="279" y="-1319.3" font-family="Times,serif" font-size="14.00">KS 373_1_28_rc 1</text>
</g>
<!-- 376_0_7&#45;&gt;373_1_28_rc -->
<g id="edge47" class="edge"><title>376_0_7&#45;&gt;373_1_28_rc</title>
<path fill="none" stroke="black" stroke-dasharray="1,5" d="M209.582,-1392.61C222.467,-1379.88 240.519,-1362.03 254.984,-1347.74"/>
<polygon fill="black" stroke="black" points="257.524,-1350.15 262.176,-1340.63 252.603,-1345.17 257.524,-1350.15"/>
<text text-anchor="middle" x="249" y="-1362.8" font-family="Times,serif" font-size="14.00">31</text>
</g>
<!-- 376_0_7_rc -->
<g id="node14" class="node"><title>376_0_7_rc</title>
<ellipse fill="none" stroke="black" cx="553" cy="-540" rx="73.387" ry="18"/>
<text text-anchor="middle" x="553" y="-536.3" font-family="Times,serif" font-size="14.00">AT 376_0_7_rc 2</text>
</g>
<!-- 376_0_7_rc&#45;&gt;369_0_22_rc -->
<g id="edge49" class="edge"><title>376_0_7_rc&#45;&gt;369_0_22_rc</title>
<path fill="none" stroke="black" stroke-dasharray="1,5" d="M535.021,-522.207C521.436,-509.517 502.607,-491.93 487.472,-477.793"/>
<polygon fill="black" stroke="black" points="489.638,-475.027 479.941,-470.758 484.86,-480.142 489.638,-475.027"/>
<text text-anchor="middle" x="523.5" y="-492.8" font-family="Times,serif" font-size="14.00">355</text>
</g>
<!-- 376_0_7_rc&#45;&gt;378_0_29_rc -->
<g id="edge51" class="edge"><title>376_0_7_rc&#45;&gt;378_0_29_rc</title>
<path fill="none" stroke="black" stroke-dasharray="1,5" d="M532.714,-557.626C515.989,-573.317 495,-598.488 495,-626 495,-802 495,-802 495,-802 495,-828.155 515.244,-849.954 534.836,-864.926"/>
<polygon fill="black" stroke="black" points="532.976,-867.9 543.132,-870.917 537.075,-862.225 532.976,-867.9"/>
<text text-anchor="middle" x="505.5" y="-710.3" font-family="Times,serif" font-size="14.00">403</text>
</g>
<!-- 368_0_10 -->
<g id="node17" class="node"><title>368_0_10</title>
<ellipse fill="none" stroke="black" cx="268" cy="-540" rx="67.6881" ry="18"/>
<text text-anchor="middle" x="268" y="-536.3" font-family="Times,serif" font-size="14.00">KR 368_0_10 1</text>
</g>
<!-- 368_0_9&#45;&gt;368_0_10 -->
<g id="edge9" class="edge"><title>368_0_9&#45;&gt;368_0_10</title>
<path fill="none" stroke="black" stroke-width="2" d="M268,-608.799C268,-597.163 268,-581.548 268,-568.237"/>
<polygon fill="black" stroke="black" stroke-width="2" points="271.5,-568.175 268,-558.175 264.5,-568.175 271.5,-568.175"/>
<text text-anchor="middle" x="278.5" y="-579.8" font-family="Times,serif" font-size="14.00">190</text>
</g>
<!-- 368_0_9_rc -->
<g id="node16" class="node"><title>368_0_9_rc</title>
<ellipse fill="none" stroke="black" cx="502" cy="-1323" rx="74.187" ry="18"/>
<text text-anchor="middle" x="502" y="-1319.3" font-family="Times,serif" font-size="14.00">KR 368_0_9_rc 1</text>
</g>
<!-- 368_0_9_rc&#45;&gt;368_0_1_rc -->
<g id="edge8" class="edge"><title>368_0_9_rc&#45;&gt;368_0_1_rc</title>
<path fill="none" stroke="black" stroke-width="2" d="M502,-1304.8C502,-1293.16 502,-1277.55 502,-1264.24"/>
<polygon fill="black" stroke="black" stroke-width="2" points="505.5,-1264.18 502,-1254.18 498.5,-1264.18 505.5,-1264.18"/>
<text text-anchor="middle" x="512.5" y="-1275.8" font-family="Times,serif" font-size="14.00">319</text>
</g>
<!-- 368_0_19 -->
<g id="node29" class="node"><title>368_0_19</title>
<ellipse fill="none" stroke="black" cx="268" cy="-453" rx="66.0889" ry="18"/>
<text text-anchor="middle" x="268" y="-449.3" font-family="Times,serif" font-size="14.00">KS 368_0_19 1</text>
</g>
<!-- 368_0_10&#45;&gt;368_0_19 -->
<g id="edge11" class="edge"><title>368_0_10&#45;&gt;368_0_19</title>
<path fill="none" stroke="black" stroke-width="2" d="M268,-521.799C268,-510.163 268,-494.548 268,-481.237"/>
<polygon fill="black" stroke="black" stroke-width="2" points="271.5,-481.175 268,-471.175 264.5,-481.175 271.5,-481.175"/>
<text text-anchor="middle" x="278.5" y="-492.8" font-family="Times,serif" font-size="14.00">583</text>
</g>
<!-- 368_0_10_rc -->
<g id="node18" class="node"><title>368_0_10_rc</title>
<ellipse fill="none" stroke="black" cx="502" cy="-1410" rx="78.7863" ry="18"/>
<text text-anchor="middle" x="502" y="-1406.3" font-family="Times,serif" font-size="14.00">KR 368_0_10_rc 1</text>
</g>
<!-- 368_0_10_rc&#45;&gt;368_0_9_rc -->
<g id="edge10" class="edge"><title>368_0_10_rc&#45;&gt;368_0_9_rc</title>
<path fill="none" stroke="black" stroke-width="2" d="M502,-1391.8C502,-1380.16 502,-1364.55 502,-1351.24"/>
<polygon fill="black" stroke="black" stroke-width="2" points="505.5,-1351.18 502,-1341.18 498.5,-1351.18 505.5,-1351.18"/>
<text text-anchor="middle" x="512.5" y="-1362.8" font-family="Times,serif" font-size="14.00">190</text>
</g>
<!-- 368_2_20 -->
<g id="node31" class="node"><title>368_2_20</title>
<ellipse fill="none" stroke="black" cx="268" cy="-192" rx="66.0889" ry="18"/>
<text text-anchor="middle" x="268" y="-188.3" font-family="Times,serif" font-size="14.00">KS 368_2_20 1</text>
</g>
<!-- 368_0_11&#45;&gt;368_2_20 -->
<g id="edge17" class="edge"><title>368_0_11&#45;&gt;368_2_20</title>
<path fill="none" stroke="black" stroke-width="2" d="M268,-260.799C268,-249.163 268,-233.548 268,-220.237"/>
<polygon fill="black" stroke="black" stroke-width="2" points="271.5,-220.175 268,-210.175 264.5,-220.175 271.5,-220.175"/>
<text text-anchor="middle" x="278.5" y="-231.8" font-family="Times,serif" font-size="14.00">849</text>
</g>
<!-- 368_0_11_rc -->
<g id="node20" class="node"><title>368_0_11_rc</title>
<ellipse fill="none" stroke="black" cx="502" cy="-1671" rx="78.7863" ry="18"/>
<text text-anchor="middle" x="502" y="-1667.3" font-family="Times,serif" font-size="14.00">KR 368_0_11_rc 1</text>
</g>
<!-- 368_0_11_rc&#45;&gt;368_0_2_rc -->
<g id="edge16" class="edge"><title>368_0_11_rc&#45;&gt;368_0_2_rc</title>
<path fill="none" stroke="black" stroke-width="2" d="M502,-1652.8C502,-1641.16 502,-1625.55 502,-1612.24"/>
<polygon fill="black" stroke="black" stroke-width="2" points="505.5,-1612.18 502,-1602.18 498.5,-1612.18 505.5,-1612.18"/>
<text text-anchor="middle" x="516" y="-1623.8" font-family="Times,serif" font-size="14.00">2374</text>
</g>
<!-- 368_0_18 -->
<g id="node27" class="node"><title>368_0_18</title>
<ellipse fill="none" stroke="black" cx="268" cy="-801" rx="66.0889" ry="18"/>
<text text-anchor="middle" x="268" y="-797.3" font-family="Times,serif" font-size="14.00">KS 368_0_18 1</text>
</g>
<!-- 368_2_12&#45;&gt;368_0_18 -->
<g id="edge3" class="edge"><title>368_2_12&#45;&gt;368_0_18</title>
<path fill="none" stroke="black" stroke-width="2" d="M268,-869.799C268,-858.163 268,-842.548 268,-829.237"/>
<polygon fill="black" stroke="black" stroke-width="2" points="271.5,-829.175 268,-819.175 264.5,-829.175 271.5,-829.175"/>
<text text-anchor="middle" x="278.5" y="-840.8" font-family="Times,serif" font-size="14.00">869</text>
</g>
<!-- 368_2_12_rc -->
<g id="node22" class="node"><title>368_2_12_rc</title>
<ellipse fill="none" stroke="black" cx="502" cy="-1062" rx="78.7863" ry="18"/>
<text text-anchor="middle" x="502" y="-1058.3" font-family="Times,serif" font-size="14.00">KR 368_2_12_rc 1</text>
</g>
<!-- 368_2_12_rc&#45;&gt;368_2_3_rc -->
<g id="edge2" class="edge"><title>368_2_12_rc&#45;&gt;368_2_3_rc</title>
<path fill="none" stroke="black" stroke-width="2" d="M502,-1043.8C502,-1032.16 502,-1016.55 502,-1003.24"/>
<polygon fill="black" stroke="black" stroke-width="2" points="505.5,-1003.18 502,-993.175 498.5,-1003.18 505.5,-1003.18"/>
<text text-anchor="middle" x="516" y="-1014.8" font-family="Times,serif" font-size="14.00">1501</text>
</g>
<!-- 371_1_14 -->
<g id="node23" class="node"><title>371_1_14</title>
<ellipse fill="none" stroke="black" cx="107" cy="-1236" rx="67.6881" ry="18"/>
<text text-anchor="middle" x="107" y="-1232.3" font-family="Times,serif" font-size="14.00">KR 371_1_14 1</text>
</g>
<!-- 371_1_25 -->
<g id="node41" class="node"><title>371_1_25</title>
<ellipse fill="none" stroke="black" cx="115" cy="-1149" rx="66.0889" ry="18"/>
<text text-anchor="middle" x="115" y="-1145.3" font-family="Times,serif" font-size="14.00">KS 371_1_25 1</text>
</g>
<!-- 371_1_14&#45;&gt;371_1_25 -->
<g id="edge34" class="edge"><title>371_1_14&#45;&gt;371_1_25</title>
<path fill="none" stroke="black" stroke-width="2" d="M108.619,-1217.8C109.714,-1206.16 111.184,-1190.55 112.437,-1177.24"/>
<polygon fill="black" stroke="black" stroke-width="2" points="115.931,-1177.46 113.383,-1167.18 108.962,-1176.8 115.931,-1177.46"/>
<text text-anchor="middle" x="122.5" y="-1188.8" font-family="Times,serif" font-size="14.00">556</text>
</g>
<!-- 371_1_14_rc -->
<g id="node24" class="node"><title>371_1_14_rc</title>
<ellipse fill="none" stroke="black" cx="613" cy="-714" rx="78.7863" ry="18"/>
<text text-anchor="middle" x="613" y="-710.3" font-family="Times,serif" font-size="14.00">KR 371_1_14_rc 1</text>
</g>
<!-- 371_1_26 -->
<g id="node43" class="node"><title>371_1_26</title>
<ellipse fill="none" stroke="black" cx="595" cy="-627" rx="66.0889" ry="18"/>
<text text-anchor="middle" x="595" y="-623.3" font-family="Times,serif" font-size="14.00">KS 371_1_26 1</text>
</g>
<!-- 371_1_14_rc&#45;&gt;371_1_26 -->
<g id="edge35" class="edge"><title>371_1_14_rc&#45;&gt;371_1_26</title>
<path fill="none" stroke="black" stroke-width="2" d="M609.357,-695.799C606.893,-684.163 603.587,-668.548 600.768,-655.237"/>
<polygon fill="black" stroke="black" stroke-width="2" points="604.133,-654.233 598.637,-645.175 597.285,-655.684 604.133,-654.233"/>
<text text-anchor="middle" x="615.5" y="-666.8" font-family="Times,serif" font-size="14.00">667</text>
</g>
<!-- 373_1_17 -->
<g id="node25" class="node"><title>373_1_17</title>
<ellipse fill="none" stroke="black" cx="777" cy="-714" rx="67.6881" ry="18"/>
<text text-anchor="middle" x="777" y="-710.3" font-family="Times,serif" font-size="14.00">KR 373_1_17 1</text>
</g>
<!-- 373_1_28 -->
<g id="node47" class="node"><title>373_1_28</title>
<ellipse fill="none" stroke="black" cx="752" cy="-627" rx="66.0889" ry="18"/>
<text text-anchor="middle" x="752" y="-623.3" font-family="Times,serif" font-size="14.00">KS 373_1_28 1</text>
</g>
<!-- 373_1_17&#45;&gt;373_1_28 -->
<g id="edge39" class="edge"><title>373_1_17&#45;&gt;373_1_28</title>
<path fill="none" stroke="black" stroke-width="2" d="M771.941,-695.799C768.485,-684.047 763.835,-668.238 759.895,-654.842"/>
<polygon fill="black" stroke="black" stroke-width="2" points="763.231,-653.781 757.052,-645.175 756.516,-655.757 763.231,-653.781"/>
<text text-anchor="middle" x="775.5" y="-666.8" font-family="Times,serif" font-size="14.00">586</text>
</g>
<!-- 373_1_17_rc -->
<g id="node26" class="node"><title>373_1_17_rc</title>
<ellipse fill="none" stroke="black" cx="271" cy="-1236" rx="78.7863" ry="18"/>
<text text-anchor="middle" x="271" y="-1232.3" font-family="Times,serif" font-size="14.00">KR 373_1_17_rc 1</text>
</g>
<!-- 373_1_27 -->
<g id="node45" class="node"><title>373_1_27</title>
<ellipse fill="none" stroke="black" cx="268" cy="-1149" rx="66.0889" ry="18"/>
<text text-anchor="middle" x="268" y="-1145.3" font-family="Times,serif" font-size="14.00">KS 373_1_27 1</text>
</g>
<!-- 373_1_17_rc&#45;&gt;373_1_27 -->
<g id="edge38" class="edge"><title>373_1_17_rc&#45;&gt;373_1_27</title>
<path fill="none" stroke="black" stroke-width="2" d="M270.393,-1217.8C269.982,-1206.16 269.431,-1190.55 268.961,-1177.24"/>
<polygon fill="black" stroke="black" stroke-width="2" points="272.457,-1177.05 268.606,-1167.18 265.461,-1177.29 272.457,-1177.05"/>
<text text-anchor="middle" x="280.5" y="-1188.8" font-family="Times,serif" font-size="14.00">583</text>
</g>
<!-- 368_0_18&#45;&gt;368_0_1 -->
<g id="edge5" class="edge"><title>368_0_18&#45;&gt;368_0_1</title>
<path fill="none" stroke="black" stroke-width="2" d="M268,-782.799C268,-771.163 268,-755.548 268,-742.237"/>
<polygon fill="black" stroke="black" stroke-width="2" points="271.5,-742.175 268,-732.175 264.5,-742.175 271.5,-742.175"/>
<text text-anchor="middle" x="278.5" y="-753.8" font-family="Times,serif" font-size="14.00">370</text>
</g>
<!-- 368_0_18_rc&#45;&gt;368_2_12_rc -->
<g id="edge4" class="edge"><title>368_0_18_rc&#45;&gt;368_2_12_rc</title>
<path fill="none" stroke="black" stroke-width="2" d="M502,-1130.8C502,-1119.16 502,-1103.55 502,-1090.24"/>
<polygon fill="black" stroke="black" stroke-width="2" points="505.5,-1090.18 502,-1080.18 498.5,-1090.18 505.5,-1090.18"/>
<text text-anchor="middle" x="512.5" y="-1101.8" font-family="Times,serif" font-size="14.00">869</text>
</g>
<!-- 368_0_19&#45;&gt;368_0_2 -->
<g id="edge13" class="edge"><title>368_0_19&#45;&gt;368_0_2</title>
<path fill="none" stroke="black" stroke-width="2" d="M268,-434.799C268,-423.163 268,-407.548 268,-394.237"/>
<polygon fill="black" stroke="black" stroke-width="2" points="271.5,-394.175 268,-384.175 264.5,-394.175 271.5,-394.175"/>
<text text-anchor="middle" x="278.5" y="-405.8" font-family="Times,serif" font-size="14.00">343</text>
</g>
<!-- 368_0_19_rc&#45;&gt;368_0_10_rc -->
<g id="edge12" class="edge"><title>368_0_19_rc&#45;&gt;368_0_10_rc</title>
<path fill="none" stroke="black" stroke-width="2" d="M502,-1478.8C502,-1467.16 502,-1451.55 502,-1438.24"/>
<polygon fill="black" stroke="black" stroke-width="2" points="505.5,-1438.18 502,-1428.18 498.5,-1438.18 505.5,-1438.18"/>
<text text-anchor="middle" x="512.5" y="-1449.8" font-family="Times,serif" font-size="14.00">583</text>
</g>
<!-- 368_2_20&#45;&gt;368_2_4 -->
<g id="edge19" class="edge"><title>368_2_20&#45;&gt;368_2_4</title>
<path fill="none" stroke="black" stroke-width="2" d="M268,-173.799C268,-162.163 268,-146.548 268,-133.237"/>
<polygon fill="black" stroke="black" stroke-width="2" points="271.5,-133.175 268,-123.175 264.5,-133.175 271.5,-133.175"/>
<text text-anchor="middle" x="278.5" y="-144.8" font-family="Times,serif" font-size="14.00">352</text>
</g>
<!-- 368_2_20_rc&#45;&gt;368_0_11_rc -->
<g id="edge18" class="edge"><title>368_2_20_rc&#45;&gt;368_0_11_rc</title>
<path fill="none" stroke="black" stroke-width="2" d="M502,-1739.8C502,-1728.16 502,-1712.55 502,-1699.24"/>
<polygon fill="black" stroke="black" stroke-width="2" points="505.5,-1699.18 502,-1689.18 498.5,-1699.18 505.5,-1699.18"/>
<text text-anchor="middle" x="512.5" y="-1710.8" font-family="Times,serif" font-size="14.00">849</text>
</g>
<!-- 369_0_21 -->
<g id="node33" class="node"><title>369_0_21</title>
<ellipse fill="none" stroke="black" cx="121" cy="-1671" rx="66.0889" ry="18"/>
<text text-anchor="middle" x="121" y="-1667.3" font-family="Times,serif" font-size="14.00">KS 369_0_21 1</text>
</g>
<!-- 369_0_21&#45;&gt;369_0_5 -->
<g id="edge26" class="edge"><title>369_0_21&#45;&gt;369_0_5</title>
<path fill="none" stroke="black" stroke-width="2" d="M121,-1652.8C121,-1641.16 121,-1625.55 121,-1612.24"/>
<polygon fill="black" stroke="black" stroke-width="2" points="124.5,-1612.18 121,-1602.18 117.5,-1612.18 124.5,-1612.18"/>
<text text-anchor="middle" x="131.5" y="-1623.8" font-family="Times,serif" font-size="14.00">340</text>
</g>
<!-- 369_0_23 -->
<g id="node37" class="node"><title>369_0_23</title>
<ellipse fill="none" stroke="black" cx="462" cy="-192" rx="66.0889" ry="18"/>
<text text-anchor="middle" x="462" y="-188.3" font-family="Times,serif" font-size="14.00">KS 369_0_23 1</text>
</g>
<!-- 369_0_21_rc&#45;&gt;369_0_23 -->
<g id="edge27" class="edge"><title>369_0_21_rc&#45;&gt;369_0_23</title>
<path fill="none" stroke="black" stroke-width="2" d="M462,-260.799C462,-249.163 462,-233.548 462,-220.237"/>
<polygon fill="black" stroke="black" stroke-width="2" points="465.5,-220.175 462,-210.175 458.5,-220.175 465.5,-220.175"/>
<text text-anchor="middle" x="479" y="-231.8" font-family="Times,serif" font-size="14.00">10665</text>
</g>
<!-- 369_0_22&#45;&gt;368_2_3 -->
<g id="edge42" class="edge"><title>369_0_22&#45;&gt;368_2_3</title>
<path fill="none" stroke="black" stroke-dasharray="1,5" d="M75.2551,-1483.91C40.99,-1471.77 0,-1449.25 0,-1411 0,-1411 0,-1411 0,-1061 0,-1018.93 121.511,-994.976 200.894,-983.817"/>
<polygon fill="black" stroke="black" points="201.404,-987.28 210.836,-982.455 200.453,-980.345 201.404,-987.28"/>
<text text-anchor="middle" x="10.5" y="-1232.3" font-family="Times,serif" font-size="14.00">328</text>
</g>
<!-- 369_0_22&#45;&gt;376_0_7 -->
<g id="edge50" class="edge"><title>369_0_22&#45;&gt;376_0_7</title>
<path fill="none" stroke="black" stroke-dasharray="1,5" d="M135.225,-1479.21C145.777,-1466.75 160.326,-1449.57 172.184,-1435.57"/>
<polygon fill="black" stroke="black" points="175.012,-1437.65 178.805,-1427.76 169.671,-1433.13 175.012,-1437.65"/>
<text text-anchor="middle" x="172.5" y="-1449.8" font-family="Times,serif" font-size="14.00">355</text>
</g>
<!-- 369_0_22_rc&#45;&gt;369_0_5_rc -->
<g id="edge23" class="edge"><title>369_0_22_rc&#45;&gt;369_0_5_rc</title>
<path fill="none" stroke="black" stroke-width="2" d="M462,-434.799C462,-423.163 462,-407.548 462,-394.237"/>
<polygon fill="black" stroke="black" stroke-width="2" points="465.5,-394.175 462,-384.175 458.5,-394.175 465.5,-394.175"/>
<text text-anchor="middle" x="472.5" y="-405.8" font-family="Times,serif" font-size="14.00">493</text>
</g>
<!-- 369_0_23&#45;&gt;369_0_6 -->
<g id="edge29" class="edge"><title>369_0_23&#45;&gt;369_0_6</title>
<path fill="none" stroke="black" stroke-width="2" d="M462,-173.799C462,-162.163 462,-146.548 462,-133.237"/>
<polygon fill="black" stroke="black" stroke-width="2" points="465.5,-133.175 462,-123.175 458.5,-133.175 465.5,-133.175"/>
<text text-anchor="middle" x="472.5" y="-144.8" font-family="Times,serif" font-size="14.00">340</text>
</g>
<!-- 369_0_23_rc&#45;&gt;369_0_21 -->
<g id="edge28" class="edge"><title>369_0_23_rc&#45;&gt;369_0_21</title>
<path fill="none" stroke="black" stroke-width="2" d="M121,-1739.8C121,-1728.16 121,-1712.55 121,-1699.24"/>
<polygon fill="black" stroke="black" stroke-width="2" points="124.5,-1699.18 121,-1689.18 117.5,-1699.18 124.5,-1699.18"/>
<text text-anchor="middle" x="138" y="-1710.8" font-family="Times,serif" font-size="14.00">10665</text>
</g>
<!-- 369_0_24_rc -->
<g id="node40" class="node"><title>369_0_24_rc</title>
<ellipse fill="none" stroke="black" cx="121" cy="-1932" rx="77.1866" ry="18"/>
<text text-anchor="middle" x="121" y="-1928.3" font-family="Times,serif" font-size="14.00">KS 369_0_24_rc 1</text>
</g>
<!-- 369_0_24_rc&#45;&gt;369_0_6_rc -->
<g id="edge32" class="edge"><title>369_0_24_rc&#45;&gt;369_0_6_rc</title>
<path fill="none" stroke="black" stroke-width="2" d="M121,-1913.8C121,-1902.16 121,-1886.55 121,-1873.24"/>
<polygon fill="black" stroke="black" stroke-width="2" points="124.5,-1873.18 121,-1863.18 117.5,-1873.18 124.5,-1873.18"/>
<text text-anchor="middle" x="131.5" y="-1884.8" font-family="Times,serif" font-size="14.00">493</text>
</g>
<!-- 378_0_29 -->
<g id="node49" class="node"><title>378_0_29</title>
<ellipse fill="none" stroke="black" cx="268" cy="-1062" rx="66.0889" ry="18"/>
<text text-anchor="middle" x="268" y="-1058.3" font-family="Times,serif" font-size="14.00">KS 378_0_29 2</text>
</g>
<!-- 371_1_25&#45;&gt;378_0_29 -->
<g id="edge53" class="edge"><title>371_1_25&#45;&gt;378_0_29</title>
<path fill="none" stroke="black" stroke-dasharray="1,5" d="M142.707,-1132.61C167.542,-1118.81 204.152,-1098.47 231.393,-1083.34"/>
<polygon fill="black" stroke="black" points="233.199,-1086.34 240.241,-1078.42 229.8,-1080.22 233.199,-1086.34"/>
<text text-anchor="middle" x="204.5" y="-1101.8" font-family="Times,serif" font-size="14.00">4</text>
</g>
<!-- 371_1_25_rc -->
<g id="node42" class="node"><title>371_1_25_rc</title>
<ellipse fill="none" stroke="black" cx="602" cy="-801" rx="77.1866" ry="18"/>
<text text-anchor="middle" x="602" y="-797.3" font-family="Times,serif" font-size="14.00">KS 371_1_25_rc 1</text>
</g>
<!-- 371_1_25_rc&#45;&gt;371_1_14_rc -->
<g id="edge33" class="edge"><title>371_1_25_rc&#45;&gt;371_1_14_rc</title>
<path fill="none" stroke="black" stroke-width="2" d="M604.226,-782.799C605.732,-771.163 607.753,-755.548 609.475,-742.237"/>
<polygon fill="black" stroke="black" stroke-width="2" points="612.965,-742.542 610.777,-732.175 606.023,-741.644 612.965,-742.542"/>
<text text-anchor="middle" x="618.5" y="-753.8" font-family="Times,serif" font-size="14.00">556</text>
</g>
<!-- 371_1_26&#45;&gt;376_0_7_rc -->
<g id="edge46" class="edge"><title>371_1_26&#45;&gt;376_0_7_rc</title>
<path fill="none" stroke="black" stroke-dasharray="1,5" d="M586.501,-608.799C580.598,-596.854 572.625,-580.717 565.938,-567.183"/>
<polygon fill="black" stroke="black" points="568.911,-565.3 561.343,-557.885 562.635,-568.401 568.911,-565.3"/>
<text text-anchor="middle" x="584" y="-579.8" font-family="Times,serif" font-size="14.00">31</text>
</g>
<!-- 371_1_26_rc&#45;&gt;371_1_14 -->
<g id="edge36" class="edge"><title>371_1_26_rc&#45;&gt;371_1_14</title>
<path fill="none" stroke="black" stroke-width="2" d="M106.202,-1304.8C106.339,-1293.16 106.523,-1277.55 106.68,-1264.24"/>
<polygon fill="black" stroke="black" stroke-width="2" points="110.18,-1264.22 106.798,-1254.18 103.18,-1264.13 110.18,-1264.22"/>
<text text-anchor="middle" x="117.5" y="-1275.8" font-family="Times,serif" font-size="14.00">667</text>
</g>
<!-- 373_1_27&#45;&gt;378_0_29 -->
<g id="edge55" class="edge"><title>373_1_27&#45;&gt;378_0_29</title>
<path fill="none" stroke="black" stroke-dasharray="1,5" d="M268,-1130.8C268,-1119.16 268,-1103.55 268,-1090.24"/>
<polygon fill="black" stroke="black" points="271.5,-1090.18 268,-1080.18 264.5,-1090.18 271.5,-1090.18"/>
<text text-anchor="middle" x="271.5" y="-1101.8" font-family="Times,serif" font-size="14.00">4</text>
</g>
<!-- 373_1_27_rc -->
<g id="node46" class="node"><title>373_1_27_rc</title>
<ellipse fill="none" stroke="black" cx="776" cy="-801" rx="77.1866" ry="18"/>
<text text-anchor="middle" x="776" y="-797.3" font-family="Times,serif" font-size="14.00">KS 373_1_27_rc 1</text>
</g>
<!-- 373_1_27_rc&#45;&gt;373_1_17 -->
<g id="edge37" class="edge"><title>373_1_27_rc&#45;&gt;373_1_17</title>
<path fill="none" stroke="black" stroke-width="2" d="M776.202,-782.799C776.339,-771.163 776.523,-755.548 776.68,-742.237"/>
<polygon fill="black" stroke="black" stroke-width="2" points="780.18,-742.216 776.798,-732.175 773.18,-742.134 780.18,-742.216"/>
<text text-anchor="middle" x="786.5" y="-753.8" font-family="Times,serif" font-size="14.00">583</text>
</g>
<!-- 373_1_28&#45;&gt;376_0_7_rc -->
<g id="edge48" class="edge"><title>373_1_28&#45;&gt;376_0_7_rc</title>
<path fill="none" stroke="black" stroke-dasharray="1,5" d="M717.791,-611.388C684.535,-597.183 633.858,-575.537 597.485,-560.001"/>
<polygon fill="black" stroke="black" points="598.671,-556.702 588.099,-555.992 595.921,-563.139 598.671,-556.702"/>
<text text-anchor="middle" x="671" y="-579.8" font-family="Times,serif" font-size="14.00">31</text>
</g>
<!-- 373_1_28_rc&#45;&gt;373_1_17_rc -->
<g id="edge40" class="edge"><title>373_1_28_rc&#45;&gt;373_1_17_rc</title>
<path fill="none" stroke="black" stroke-width="2" d="M277.381,-1304.8C276.286,-1293.16 274.816,-1277.55 273.563,-1264.24"/>
<polygon fill="black" stroke="black" stroke-width="2" points="277.038,-1263.8 272.617,-1254.18 270.069,-1264.46 277.038,-1263.8"/>
<text text-anchor="middle" x="286.5" y="-1275.8" font-family="Times,serif" font-size="14.00">586</text>
</g>
<!-- 378_0_29&#45;&gt;368_2_3 -->
<g id="edge44" class="edge"><title>378_0_29&#45;&gt;368_2_3</title>
<path fill="none" stroke="black" stroke-dasharray="1,5" d="M268,-1043.8C268,-1032.16 268,-1016.55 268,-1003.24"/>
<polygon fill="black" stroke="black" points="271.5,-1003.18 268,-993.175 264.5,-1003.18 271.5,-1003.18"/>
<text text-anchor="middle" x="278.5" y="-1014.8" font-family="Times,serif" font-size="14.00">376</text>
</g>
<!-- 378_0_29&#45;&gt;376_0_7 -->
<g id="edge52" class="edge"><title>378_0_29&#45;&gt;376_0_7</title>
<path fill="none" stroke="black" stroke-dasharray="1,5" d="M312.611,-1075.42C346.026,-1087.76 386,-1110.38 386,-1148 386,-1324 386,-1324 386,-1324 386,-1378.98 319.602,-1398.7 264.697,-1405.62"/>
<polygon fill="black" stroke="black" points="264.138,-1402.16 254.597,-1406.77 264.928,-1409.11 264.138,-1402.16"/>
<text text-anchor="middle" x="396.5" y="-1232.3" font-family="Times,serif" font-size="14.00">403</text>
</g>
<!-- 378_0_29_rc&#45;&gt;371_1_25_rc -->
<g id="edge54" class="edge"><title>378_0_29_rc&#45;&gt;371_1_25_rc</title>
<path fill="none" stroke="black" stroke-dasharray="1,5" d="M577.273,-869.799C581.559,-858.047 587.325,-842.238 592.211,-828.842"/>
<polygon fill="black" stroke="black" points="595.598,-829.769 595.736,-819.175 589.022,-827.371 595.598,-829.769"/>
<text text-anchor="middle" x="592.5" y="-840.8" font-family="Times,serif" font-size="14.00">4</text>
</g>
<!-- 378_0_29_rc&#45;&gt;373_1_27_rc -->
<g id="edge56" class="edge"><title>378_0_29_rc&#45;&gt;373_1_27_rc</title>
<path fill="none" stroke="black" stroke-dasharray="1,5" d="M607.178,-871.999C641.47,-857.781 693.12,-836.365 730.255,-820.968"/>
<polygon fill="black" stroke="black" points="731.943,-824.057 739.839,-816.993 729.261,-817.59 731.943,-824.057"/>
<text text-anchor="middle" x="688.5" y="-840.8" font-family="Times,serif" font-size="14.00">4</text>
</g>
<!-- 368_1_30_rc -->
<g id="node52" class="node"><title>368_1_30_rc</title>
<ellipse fill="none" stroke="black" cx="502" cy="-1932" rx="77.1866" ry="18"/>
<text text-anchor="middle" x="502" y="-1928.3" font-family="Times,serif" font-size="14.00">TE 368_1_30_rc 1</text>
</g>
<!-- 368_1_30_rc&#45;&gt;368_2_4_rc -->
<g id="edge22" class="edge"><title>368_1_30_rc&#45;&gt;368_2_4_rc</title>
<path fill="none" stroke="black" stroke-width="2" d="M502,-1913.8C502,-1902.16 502,-1886.55 502,-1873.24"/>
<polygon fill="black" stroke="black" stroke-width="2" points="505.5,-1873.18 502,-1863.18 498.5,-1873.18 505.5,-1873.18"/>
<text text-anchor="middle" x="519" y="-1884.8" font-family="Times,serif" font-size="14.00">11085</text>
</g>
</g>
</svg>
